<svg id="Capa_1" data-name="Capa 1" xmlns="http://www.w3.org/2000/svg" viewBox="0 0 300 120"><defs><style>.cls-1{fill:#1f1713;}.cls-2{fill:#003162;}.cls-3{fill:#1b639f;}.cls-4{fill:#666669;}</style></defs><title>Logo Hiottech web</title><path class="cls-1" d="M13.28,50.8a49.07,49.07,0,0,0-1,9.69"/><path class="cls-2" d="M17.31,53.28a37.53,37.53,0,0,0-1.18,9.37H48.91a4.68,4.68,0,0,1,4.69,4.68h0A4.69,4.69,0,0,1,48.91,72H17.31a37.69,37.69,0,0,0,3.83,9.36H48.92a4.69,4.69,0,0,1,4.68,4.69h0a4.69,4.69,0,0,1-4.68,4.68H28.81a36.86,36.86,0,0,0,6.05,4.35A37.26,37.26,0,0,0,41.1,98a4.68,4.68,0,0,1,3.13,4.41h0A4.68,4.68,0,0,1,38,106.82c-1.06-.37-2.1-.78-3.13-1.23A47.18,47.18,0,0,1,16.13,90.76h0a46.75,46.75,0,0,1-5.46-9.37A46.17,46.17,0,0,1,7.7,72,46.82,46.82,0,0,1,44.23,16.75c1.38-.28,2.79-.5,4.21-.66a4.68,4.68,0,0,1,5.16,4.66h0a4.7,4.7,0,0,1-4.17,4.66,35.83,35.83,0,0,0-5.2.95,36.86,36.86,0,0,0-9.37,3.83,37.73,37.73,0,0,0-6.05,4.35,38.41,38.41,0,0,0-3.31,3.32,37.27,37.27,0,0,0-8.19,15.42Z"/><path class="cls-3" d="M100.43,62.65A47.41,47.41,0,0,1,99.5,72a47,47,0,0,1-8.43,18.73h0a47.21,47.21,0,0,1-9.37,9.36,46.59,46.59,0,0,1-9.37,5.47c-1,.45-2.07.86-3.13,1.23A4.68,4.68,0,0,1,63,102.4h0A4.66,4.66,0,0,1,66.1,98a37.64,37.64,0,0,0,12.29-7.24,38.29,38.29,0,0,0,3.31-3.31,37.47,37.47,0,0,0,4.36-43.53H58.29a4.68,4.68,0,0,1-4.69-4.68h0a4.69,4.69,0,0,1,4.69-4.69H91.07A46.94,46.94,0,0,1,99.5,53.28,47.41,47.41,0,0,1,100.43,62.65Z"/><path class="cls-4" d="M134,49.69V73.47h-5.92V63.85H116.28v9.62h-5.93V49.69h5.93v9.55h11.84V49.69Z"/><path class="cls-4" d="M144.36,49.69V73.47h-5.92V49.69Z"/><path class="cls-4" d="M161.34,49.38a13.53,13.53,0,0,1,9.84,3.67,11.6,11.6,0,0,1,3.76,8.54,11.44,11.44,0,0,1-3.81,8.56,15.13,15.13,0,0,1-19.63,0,11.58,11.58,0,0,1,0-17.12A13.55,13.55,0,0,1,161.34,49.38Zm0,19.46a7.48,7.48,0,0,0,5.43-2,7.73,7.73,0,0,0,0-10.51,8.44,8.44,0,0,0-10.89,0,7.73,7.73,0,0,0,0,10.51A7.54,7.54,0,0,0,161.34,68.84Z"/><path class="cls-4" d="M197.31,49.69v4.36H188.7V73.47h-5.93V54.05h-8.61V49.69Z"/><path class="cls-4" d="M223.28,49.69v4.36h-8.61V73.47h-5.92V54.05h-8.61V49.69Z"/><path class="cls-4" d="M243.09,69.11v4.36H225.56V49.69h17.29v4.36H231.49v5h10.84v4.36H231.49v5.72Z"/><path class="cls-4" d="M267.79,66.22v5.19a19.74,19.74,0,0,1-9.34,2.36q-6.33,0-10.09-3.5A11.65,11.65,0,0,1,248.57,53a14.85,14.85,0,0,1,10.34-3.58,16.55,16.55,0,0,1,8.61,2.1v5.29a16.78,16.78,0,0,0-8.19-2.43,9.29,9.29,0,0,0-6.2,2,6.47,6.47,0,0,0-2.41,5.18,6.62,6.62,0,0,0,2.38,5.23,9,9,0,0,0,6.08,2.06,12.66,12.66,0,0,0,3.54-.49A34.22,34.22,0,0,0,267.79,66.22Z"/><path class="cls-4" d="M294.24,49.69V73.47h-5.92V63.85H276.47v9.62h-5.92V49.69h5.92v9.55h11.85V49.69Z"/></svg>