<svg id="Capa_1" data-name="Capa 1" xmlns="http://www.w3.org/2000/svg" viewBox="0 0 297.64 116.22"><defs><style>.cls-1{fill:#4a71b1;}.cls-2{fill:#fff;}</style></defs><title>LogoMate</title><circle class="cls-1" cx="61.68" cy="58.98" r="50.08"/><path class="cls-2" d="M45.1,50.26l-1.5-2.6,15.83-9.15a1.5,1.5,0,0,0,.75-1.3V18.91h3v18.3a4.5,4.5,0,0,1-2.25,3.9Z"/><path class="cls-2" d="M63.18,99h-3V80.72a4.47,4.47,0,0,1,2.23-3.86l14.35-8.27a1.52,1.52,0,0,0,.75-1.3V48.93h3V67.29a4.5,4.5,0,0,1-2.25,3.9L63.91,79.46a1.46,1.46,0,0,0-.73,1.26Z"/><path class="cls-2" d="M99,79.07h-5.3V44.18a.38.38,0,0,0-.2-.35.37.37,0,0,0-.39,0L64.54,60.39a5.73,5.73,0,0,1-5.72,0L30.27,43.83a.4.4,0,0,0-.6.35V79.07h-5.3V44.18a5.69,5.69,0,0,1,8.55-4.93L61.48,55.8a.41.41,0,0,0,.4,0L90.44,39.25A5.69,5.69,0,0,1,99,44.18Z"/><circle class="cls-2" cx="61.68" cy="18.91" r="5.01"/><circle class="cls-2" cx="61.68" cy="99.04" r="5.01"/><circle class="cls-2" cx="27.02" cy="79.07" r="5.01"/><circle class="cls-2" cx="96.34" cy="79.07" r="5.01"/><path class="cls-1" d="M149.15,75.47l15.32-36.91h7.05V83.93H166.9V44.71h-.13l-16.4,39.22h-2.44l-16.4-39.22h-.13V83.93h-4.61V38.56h7Z"/><path class="cls-1" d="M182,83.93h-5.39l19.74-45.37h4.49L220.6,83.93h-5.38l-5-11.92H187Zm6.72-16.15h19.68l-9.81-23.84Z"/><path class="cls-1" d="M235.92,83.93h-4.61V42.78H216.12V38.56h35v4.22H235.92Z"/><path class="cls-1" d="M261.75,79.7H286v4.23h-28.9V38.56h28.13v4.22H261.75V58.23h22v4.23h-22Z"/></svg>